<?xml version="1.0" ?><svg xmlns="http://www.w3.org/2000/svg" viewBox="285 233 2061 754" fill="#d4601c"><defs><clipPath id="a"><path d="M285 233.242h2060.93v753.75H285Zm0 0"/></clipPath><clipPath id="b"><path d="M0 0h2204v501H0z"/></clipPath><clipPath id="c"><path d="M0 0h1614v143H0z"/></clipPath></defs><g clip-path="url(#a)"><path d="m2341.238 233.242 3.856.828c0 190.856-38.95 231.258-607.864 378.063-198.207 55.074-378.058 176.203-385.41 348.707 0 0-11 26.09-29.168 25.883-4.761-.051-9.527-.051-14.289 0-18.195.23-29.168-25.883-29.168-25.883-7.351-172.504-187.203-293.633-385.41-348.707C324.82 465.3 285.922 424.926 285.922 234.07l3.855-.828c45.45 199.992 487.305 356.89 1025.73 356.89 538.4 0 980.282-156.898 1025.731-356.89m0 0"/></g><path fill-rule="evenodd" d="M1694.781 870.668c-16.277-30.465-50.832-53.965-103.68-70.504 46.743-18.324 90.973-42.758 132.696-73.273-21.406 57.199-31.086 105.132-29.04 143.777Zm-758.574 0c16.277-30.465 50.832-53.965 103.684-70.504-46.743-18.324-90.977-42.758-132.7-73.273 21.407 57.199 31.086 105.132 29.04 143.777Zm0 0"/></svg>